# xmcd
#
# Track frame offsets:
#       183
#       11735
#       28495
#       42663
#       60638
#       79933
#       97550
#       114378
#       130983
#       146088
#       159318
#
# Disc length: 2327 seconds
#
# Revision: 2
# Processed by: cddbd v1.5.2PL0 Copyright (c) Steve Scherf et al.
# Submitted via: FreeDbEdit v0.1
#
DISCID=9109150b
DTITLE=Dick van Altena - Minstrel Man
DYEAR=1900
DGENRE=
TTITLE0=Going Under
TTITLE1=Dream Maker
TTITLE2=Happy Man
TTITLE3=Cajun Memory
TTITLE4=Rainbow Cafe
TTITLE5=Minstrel Man
TTITLE6=I Never Told Her
TTITLE7=Dust on the Flattop
TTITLE8=Let Me In
TTITLE9=Memory Lane
TTITLE10=Leaving Paris
EXTD=
EXTT0=
EXTT1=
EXTT2=
EXTT3=
EXTT4=
EXTT5=
EXTT6=
EXTT7=
EXTT8=
EXTT9=
EXTT10=
PLAYORDER=
